<svg width="20" height="21" viewBox="0 0 20 21" fill="none" xmlns="http://www.w3.org/2000/svg">
<g clip-path="url(#clip0_41_390)">
<path d="M13.5124 0.829332C13.4701 0.840861 13.2472 0.910037 13.0128 0.983055C12.2096 1.24054 11.5601 1.61332 11.0874 2.08601C10.3457 2.83157 9.8692 3.98064 9.78081 5.22579L9.75391 5.59473L10.1382 5.54477C11.1105 5.41795 11.5755 5.20658 12.1942 4.59553C12.9014 3.90378 13.3433 3.15438 13.5662 2.27432C13.6508 1.94382 13.7315 1.29434 13.7046 1.16752C13.6969 1.12525 13.6777 1.02533 13.6661 0.944624C13.6546 0.867763 13.6316 0.806274 13.6162 0.806274C13.6008 0.810117 13.5547 0.817803 13.5124 0.829332Z" fill="white"/>
<path d="M13.282 5.2873C13.2397 5.29498 13.0591 5.32957 12.8784 5.36416C12.6978 5.3949 12.1905 5.5371 11.7447 5.6716C10.2114 6.14046 10.2075 6.14046 8.63571 5.74078C7.22146 5.38337 6.67191 5.30651 5.99937 5.37184C5.75726 5.3949 5.41138 5.45255 5.23076 5.50251C3.52828 5.9752 2.19474 7.69689 1.81428 9.9105C1.6375 10.9404 1.65671 12.224 1.86808 13.3308C2.35999 15.9057 4.0471 18.9609 5.54973 19.987C6.0647 20.3367 6.60273 20.502 7.11386 20.4635C7.48663 20.4366 7.85557 20.3367 8.49736 20.0946C9.85396 19.5796 10.4842 19.5719 11.9753 20.0562C12.7555 20.3098 13.3204 20.4405 13.6163 20.4405C14.0967 20.4366 14.6309 20.2483 15.0997 19.914C16.122 19.1838 17.3787 17.3084 18.0166 15.5636C18.0858 15.3638 18.1319 15.187 18.1165 15.1716C18.1012 15.1563 17.9897 15.1063 17.8744 15.0602C16.8099 14.6413 15.7876 13.2501 15.5494 11.8858C15.4802 11.4862 15.4687 10.6676 15.5302 10.3217C15.7069 9.3302 16.0989 8.64229 17.0021 7.74685L17.5747 7.17808L17.3748 6.95134C16.3795 5.80227 15.2189 5.25271 13.8238 5.26424C13.5702 5.26808 13.3242 5.27577 13.282 5.2873Z" fill="white"/>
</g>
<defs>
<clipPath id="clip0_41_390">
<rect x="0.0810547" y="0.80249" width="19.6765" height="19.6765" fill="white"/>
</clipPath>
</defs>
</svg>
