<svg width="7" height="7" viewBox="0 0 7 7" fill="none" xmlns="http://www.w3.org/2000/svg">
<path d="M6.64799 3.59301L4.19097 6.05003C4.13974 6.10126 4.07026 6.13003 3.99782 6.13003C3.92537 6.13003 3.85589 6.10126 3.80467 6.05003C3.75344 5.9988 3.72466 5.92932 3.72466 5.85688C3.72466 5.78443 3.75344 5.71496 3.80467 5.66373L5.79588 3.67286H0.448784C0.376379 3.67286 0.30694 3.6441 0.255742 3.5929C0.204544 3.5417 0.175781 3.47226 0.175781 3.39986C0.175781 3.32745 0.204544 3.25801 0.255742 3.20681C0.30694 3.15562 0.376379 3.12685 0.448784 3.12685H5.79588L3.80467 1.13598C3.75344 1.08476 3.72466 1.01528 3.72466 0.942832C3.72466 0.870387 3.75344 0.800909 3.80467 0.749683C3.85589 0.698456 3.92537 0.669678 3.99782 0.669678C4.07026 0.669678 4.13974 0.698456 4.19097 0.749683L6.64799 3.20671C6.67337 3.23206 6.69351 3.26217 6.70725 3.29531C6.72099 3.32845 6.72806 3.36398 6.72806 3.39986C6.72806 3.43573 6.72099 3.47126 6.70725 3.5044C6.69351 3.53754 6.67337 3.56765 6.64799 3.59301Z" fill="white"/>
</svg>
