<svg width="24" height="20" viewBox="0 0 24 20" fill="none" xmlns="http://www.w3.org/2000/svg">
<path d="M0.00622554 9.99303C0.00622554 10.2531 0.109542 10.5025 0.293449 10.6865C0.477356 10.8704 0.726787 10.9737 0.986871 10.9737H20.194L13.0415 18.125C12.9503 18.2161 12.8781 18.3243 12.8288 18.4434C12.7794 18.5624 12.7541 18.69 12.7541 18.8188C12.7541 18.9477 12.7794 19.0753 12.8288 19.1943C12.8781 19.3134 12.9503 19.4215 13.0415 19.5126C13.1326 19.6038 13.2407 19.676 13.3598 19.7253C13.4788 19.7747 13.6064 19.8 13.7353 19.8C13.8641 19.8 13.9917 19.7747 14.1107 19.7253C14.2298 19.676 14.338 19.6038 14.4291 19.5126L23.2549 10.6868C23.346 10.5958 23.4184 10.4876 23.4677 10.3686C23.5171 10.2495 23.5425 10.1219 23.5425 9.99303C23.5425 9.86416 23.5171 9.73655 23.4677 9.6175C23.4184 9.49846 23.346 9.3903 23.2549 9.29923L14.4291 0.473419C14.2451 0.28941 13.9955 0.186035 13.7353 0.186035C13.475 0.186035 13.2255 0.28941 13.0415 0.473419C12.8574 0.657428 12.7541 0.906998 12.7541 1.16723C12.7541 1.42745 12.8574 1.67702 13.0415 1.86103L20.194 9.01239H0.986871C0.726787 9.01239 0.477356 9.1157 0.293449 9.29961C0.109542 9.48352 0.00622554 9.73295 0.00622554 9.99303Z" fill="#20212B"/>
</svg>
