<svg width="24" height="20" viewBox="0 0 24 20" fill="none" xmlns="http://www.w3.org/2000/svg">
<path d="M23.9938 9.99303C23.9938 10.2531 23.8905 10.5025 23.7066 10.6865C23.5226 10.8704 23.2732 10.9737 23.0131 10.9737H3.80597L10.9585 18.125C11.0497 18.2161 11.1219 18.3243 11.1712 18.4434C11.2206 18.5624 11.2459 18.69 11.2459 18.8188C11.2459 18.9477 11.2206 19.0753 11.1712 19.1943C11.1219 19.3134 11.0497 19.4215 10.9585 19.5126C10.8674 19.6038 10.7593 19.676 10.6402 19.7253C10.5212 19.7747 10.3936 19.8 10.2647 19.8C10.1359 19.8 10.0083 19.7747 9.88926 19.7253C9.77021 19.676 9.66205 19.6038 9.57094 19.5126L0.74513 10.6868C0.653953 10.5958 0.581621 10.4876 0.532271 10.3686C0.482921 10.2495 0.45752 10.1219 0.45752 9.99303C0.45752 9.86416 0.482921 9.73655 0.532271 9.6175C0.581621 9.49846 0.653953 9.3903 0.74513 9.29923L9.57094 0.473419C9.75494 0.28941 10.0045 0.186035 10.2647 0.186035C10.525 0.186035 10.7745 0.28941 10.9585 0.473419C11.1426 0.657428 11.2459 0.906998 11.2459 1.16723C11.2459 1.42745 11.1426 1.67702 10.9585 1.86103L3.80597 9.01239H23.0131C23.2732 9.01239 23.5226 9.1157 23.7066 9.29961C23.8905 9.48352 23.9938 9.73295 23.9938 9.99303Z" fill="#20212B"/>
</svg>
