<svg width="31" height="33" viewBox="0 0 31 33" fill="none" xmlns="http://www.w3.org/2000/svg">
<g clip-path="url(#clip0_22_14)">
<path d="M25.741 28.5808C20.7588 31.8217 6.91977 32.4111 3.32158 27.4022C-0.276608 22.3933 2.76785 17.1632 4.15179 15.3219C6.36608 12.0808 8.65576 10.9021 10.2409 10.0183L9.14108 8.46161C6.83466 9.64019 3.7519 12.5719 3.32143 13.2594C2.87858 8.78079 3.32143 3.1656 4.15179 1.69238L9.14108 8.46161L10.2409 10.0183L25.741 28.5808Z" fill="#D5F5AB"/>
<path d="M3.75378 0.142037C3.20886 0.438521 2.62761 1.44399 2.21589 2.81684C1.84656 4.03501 1.61648 5.4852 1.44089 7.60571C1.34402 8.84321 1.34402 13.1422 1.44695 14.8309L1.52566 16.1586L1.34402 16.5389C0.829369 17.6217 0.381322 19.1106 0.145189 20.5286C-0.0182877 21.5083 -0.00617829 23.4032 0.169408 24.2797C0.756712 27.1801 2.43992 29.3909 5.15242 30.8475C7.16863 31.9239 9.55417 32.562 12.7147 32.8778C13.7743 32.9874 17.2194 32.9874 18.285 32.8778C21.5122 32.562 23.9159 31.9045 25.9563 30.7766C26.9917 30.2094 27.7485 29.6293 28.5175 28.8108C29.7526 27.5024 30.4913 26.0329 30.8182 24.254C31.23 21.9916 30.8848 19.4909 29.801 16.887L29.4862 16.1457L29.5467 15.3401C29.6497 13.9415 29.6921 9.69399 29.6134 8.28247C29.3893 4.29282 28.7233 1.65024 27.6395 0.470748C27.1491 -0.0642133 27.0159 -0.0899945 26.1259 0.187154C24.2671 0.760787 22.596 1.8436 21.2216 3.36469C20.38 4.28637 19.8593 5.0727 19.3083 6.21997C19.0661 6.71626 18.8421 7.11587 18.8057 7.11587C18.7694 7.10942 18.4243 7.04497 18.0428 6.96762C16.2688 6.62602 14.5796 6.62602 12.9266 6.96762C12.5936 7.03208 12.2788 7.09008 12.2303 7.09008C12.1698 7.09008 12.0124 6.82583 11.8126 6.39399C10.3534 3.26157 7.94363 1.11528 4.81941 0.161373C4.1655 -0.038432 4.09285 -0.038432 3.75378 0.142037ZM5.38249 2.55903C7.33816 3.44848 8.91843 4.99536 9.94167 7.0063C10.0991 7.32212 10.2323 7.6186 10.2323 7.67661C10.2323 7.73462 10.0991 7.8313 9.88718 7.92798C8.70046 8.43716 6.98093 9.53286 5.88503 10.4803C5.30984 10.9702 4.10495 12.2141 3.65085 12.7877L3.34206 13.168L3.29968 12.2077C3.24519 11.0926 3.34812 7.93442 3.48132 6.61313C3.65085 4.90512 3.93542 3.55805 4.31081 2.68794C4.49851 2.26254 4.51062 2.24321 4.68015 2.28188C4.78308 2.30122 5.09792 2.43012 5.38249 2.55903ZM26.6587 2.55903C27.361 4.05434 27.7303 7.08364 27.7303 11.3247L27.7243 13.2454L27.3852 12.8264C26.8585 12.1754 25.696 10.9702 25.1268 10.4868C24.0128 9.52641 22.2993 8.43716 21.1126 7.92798C20.7251 7.75395 20.7251 7.7604 20.9915 7.19965C21.8028 5.47876 23.2257 3.89965 24.7878 2.99087C25.2843 2.70083 26.2651 2.26254 26.4104 2.2561C26.477 2.2561 26.5739 2.37212 26.6587 2.55903ZM16.5958 8.83032C20.0651 9.20415 23.4436 11.1249 25.8292 14.0704C27.1733 15.7332 28.1905 17.712 28.6991 19.6713L28.8141 20.1032L26.8221 20.1225C24.921 20.1418 24.8241 20.1483 24.6667 20.2772C24.3458 20.5286 24.2489 20.7348 24.2489 21.1409C24.2489 21.5469 24.3458 21.7532 24.6667 22.0045C24.8241 22.1334 24.921 22.1399 26.9553 22.1592L29.0805 22.1786L29.0382 22.8038C29.0139 23.1454 28.9716 23.6094 28.9352 23.8286L28.8686 24.2282L26.8524 24.2475C24.921 24.2668 24.8241 24.2733 24.6667 24.4022C24.4003 24.6084 24.2671 24.8405 24.2368 25.1499C24.1944 25.5237 24.3276 25.8459 24.6182 26.078L24.8423 26.2649L26.4165 26.2971L27.9846 26.3293L27.7061 26.729C26.3438 28.6497 23.5405 30.0225 19.7684 30.609C17.2739 31.0022 14.3253 31.0344 11.8671 30.7057C7.73777 30.1514 4.72859 28.7528 3.29363 26.729L3.01511 26.3293L4.58327 26.2971L6.15749 26.2649L6.38152 26.078C6.92644 25.6397 6.90222 24.8534 6.33308 24.4022C6.17566 24.2733 6.07878 24.2668 4.14734 24.2475L2.13113 24.2282L2.06452 23.8286C2.0282 23.6094 1.98581 23.1454 1.9616 22.8038L1.91921 22.1786L4.04441 22.1592C6.07878 22.1399 6.17566 22.1334 6.33308 22.0045C6.65398 21.7532 6.75085 21.5469 6.75085 21.1409C6.75085 20.7348 6.65398 20.5286 6.33308 20.2772C6.17566 20.1483 6.07878 20.1418 4.17761 20.1225L2.18562 20.1032L2.30066 19.6713C2.76687 17.886 3.68113 16.0297 4.88601 14.4377C5.48542 13.6385 6.52683 12.5557 7.35027 11.879C10.1294 9.59731 13.4594 8.49516 16.5958 8.83032Z" fill="#19063D"/>
<path d="M10.4748 15.5268C9.97225 15.6943 9.62107 16.0037 9.37889 16.5C9.16697 16.9254 9.17908 17.6344 9.39705 18.0791C9.71795 18.7301 10.2084 19.0459 10.8986 19.0459C11.274 19.0395 11.4072 19.0137 11.6615 18.8719C12.2246 18.5561 12.5939 17.9244 12.5939 17.2734C12.5939 16.2937 11.7887 15.4559 10.8744 15.4752C10.7351 15.4752 10.5596 15.501 10.4748 15.5268Z" fill="#19063D"/>
<path d="M19.5324 15.5721C19.1085 15.7139 18.6302 16.2359 18.5031 16.6935C18.3033 17.4154 18.4365 18.0213 18.9087 18.524C19.7625 19.4264 21.0521 19.1879 21.6334 18.0213C21.8332 17.6217 21.821 16.8998 21.6031 16.468C21.5183 16.2875 21.3669 16.0683 21.2701 15.9781C20.8281 15.5398 20.1197 15.3723 19.5324 15.5721Z" fill="#19063D"/>
<path d="M14.0103 21.231C13.1566 21.4501 12.6844 22.0496 12.6117 23.0099C12.5209 24.1507 13.1566 25.5751 14.0769 26.2777L14.4584 26.5806L14.3191 26.8835C14.1617 27.2123 13.9195 27.4507 13.5381 27.6699C13.1506 27.889 12.4846 27.8697 12.0607 27.6183C11.5098 27.296 11.2312 26.832 11.1404 26.0908C11.0557 25.3624 10.759 25.0402 10.1717 25.0402C9.37851 25.0402 9.06367 25.6783 9.28769 26.8126C9.55409 28.1533 10.432 29.2103 11.6611 29.6615C12.9023 30.1191 14.2707 29.8484 15.191 28.9654L15.4998 28.6689L15.8086 28.9654C17.2193 30.3124 19.5141 30.1513 20.8521 28.6109C21.4394 27.9406 21.8391 26.7998 21.7846 25.9941C21.7059 24.9951 20.5918 24.6599 20.0227 25.4656C19.956 25.5623 19.8894 25.8201 19.8592 26.0908C19.7684 26.832 19.4898 27.296 18.9389 27.6183C18.6664 27.7794 18.5514 27.8052 18.1639 27.8052C17.7885 27.8117 17.6553 27.7794 17.407 27.6376C17.0498 27.4378 16.8318 27.2058 16.6623 26.8384L16.5351 26.5806L16.9226 26.2777C17.843 25.5751 18.4787 24.1507 18.3879 23.0099C18.3092 22.0367 17.843 21.4501 16.959 21.231C16.517 21.115 14.4463 21.1214 14.0103 21.231ZM16.4685 23.3257C16.4685 23.7253 16.0266 24.5052 15.7057 24.6664C15.518 24.763 15.4816 24.763 15.2939 24.6664C15.0639 24.5503 14.7551 24.1121 14.6219 23.7124C14.4463 23.1839 14.41 23.2033 15.4998 23.2033C16.408 23.2033 16.4685 23.2097 16.4685 23.3257Z" fill="#19063D"/>
</g>
<defs>
<clipPath id="clip0_22_14">
<rect width="31" height="33" fill="white"/>
</clipPath>
</defs>
</svg>
