<svg width="23" height="23" viewBox="0 0 23 23" fill="none" xmlns="http://www.w3.org/2000/svg">
<path d="M8.62502 11.5003L10.5417 13.4169L14.375 9.58359M7.50831 4.5016C8.19594 4.44672 8.84874 4.17632 9.37378 3.72889C10.599 2.68477 12.401 2.68477 13.6263 3.72889C14.1513 4.17632 14.8041 4.44672 15.4917 4.5016C17.0964 4.62965 18.3706 5.90389 18.4987 7.50855C18.5536 8.19619 18.824 8.84899 19.2714 9.37402C20.3155 10.5992 20.3155 12.4013 19.2714 13.6265C18.824 14.1515 18.5536 14.8043 18.4987 15.492C18.3706 17.0966 17.0964 18.3709 15.4917 18.4989C14.8041 18.5538 14.1513 18.8242 13.6263 19.2716C12.401 20.3157 10.599 20.3157 9.37378 19.2716C8.84874 18.8242 8.19594 18.5538 7.50831 18.4989C5.90364 18.3709 4.62941 17.0966 4.50135 15.492C4.44648 14.8043 4.17608 14.1515 3.72865 13.6265C2.68453 12.4013 2.68453 10.5992 3.72865 9.37402C4.17608 8.84899 4.44648 8.19619 4.50135 7.50855C4.62941 5.90389 5.90364 4.62965 7.50831 4.5016Z" stroke="#1F2130" stroke-width="1.91667" stroke-linecap="round" stroke-linejoin="round"/>
</svg>
