<svg width="39" height="35" viewBox="0 0 39 35" fill="none" xmlns="http://www.w3.org/2000/svg">
<path d="M32.1719 24.9677C32.0142 27.6487 28.9548 33.7677 19.8709 33.0107C8.51607 32.0645 6.62358 28.7527 6.15046 24.0215C5.77197 20.2365 9.13469 12.1935 10.554 9.35482L8.58879 7.93547C8.18839 9.35482 7.56983 15.5054 5.67735 16.4516C4.16338 17.2086 2.68091 15.1899 2.36552 14.5591C0.851537 13.0451 4.73111 8.40859 6.62353 6.51611L8.58879 7.93547L10.554 9.35482L32.1719 24.9677Z" fill="#D5F5AB"/>
<path d="M17.9202 0.546337C15.8289 0.84185 14.3816 1.34195 13.0707 2.22092L12.6691 2.47854L12.3736 2.327C11.4719 1.87236 9.90343 1.81174 8.76684 2.19818C7.25896 2.70586 5.97082 3.63029 4.48567 5.27456C1.37141 8.70707 -0.310751 12.2305 0.0681129 14.4961C0.35605 16.2086 1.70481 17.7316 3.4097 18.262C3.72036 18.3605 4.15985 18.4666 4.37959 18.4969C4.59175 18.5272 4.77361 18.5575 4.77361 18.5727C4.77361 18.5879 4.72057 18.8152 4.65995 19.0804C4.30382 20.6413 4.14469 23.0736 4.31897 24.6118C4.5766 26.9683 5.43283 28.9308 6.87252 30.4387C8.78957 32.4467 11.4568 33.5909 15.4727 34.1213C16.9276 34.3183 21.868 34.3183 23.3228 34.1213C27.3388 33.5909 30.006 32.4467 31.923 30.4387C33.3627 28.9308 34.2189 26.9683 34.4766 24.6118C34.6508 23.0736 34.4917 20.6413 34.1356 19.0804C34.075 18.8152 34.0219 18.5879 34.0219 18.5727C34.0219 18.5575 34.2038 18.5272 34.4235 18.4969C35.0373 18.4136 35.9087 18.1105 36.4088 17.815C37.2574 17.3073 38.0379 16.4056 38.4622 15.4584C39.326 13.5035 38.4016 10.5332 35.8708 7.16888C34.1507 4.88812 32.5444 3.37267 31.0137 2.59978C29.5059 1.83448 27.6115 1.72082 26.4219 2.327L26.1264 2.47854L25.7248 2.22092C24.7094 1.53896 23.1561 0.925201 21.8604 0.690308C21.2087 0.569069 18.4658 0.470566 17.9202 0.546337ZM20.6859 2.9256C24.0654 3.3272 26.1567 4.9942 27.8843 8.64645C28.3996 9.72243 28.5739 10.1846 29.5513 12.9276C29.9605 14.0718 30.5515 15.7085 30.8622 16.5647C31.4987 18.3075 31.8397 19.5047 32.0064 20.664C32.3322 22.9221 32.1806 25.127 31.5972 26.6122C31.0971 27.87 30.0817 29.143 29.0209 29.825C27.0963 31.0676 24.8686 31.6587 21.1633 31.9011L20.6101 31.939V29.4916V27.0517L20.9738 26.8774C22.2165 26.2712 23.5956 24.7709 24.0351 23.551C24.2548 22.9372 24.2927 22.1492 24.1411 21.6112C23.8305 20.5579 23.1713 19.9896 21.8225 19.6184C21.0951 19.4214 17.7005 19.4214 16.973 19.6184C15.6243 19.9896 14.9651 20.5579 14.6544 21.6112C14.5028 22.1492 14.5407 22.9372 14.7605 23.551C15.2 24.7709 16.579 26.2712 17.8293 26.8774L18.1854 27.0517V29.4916V31.9315L17.602 31.9011C12.3282 31.5753 9.22905 30.2341 7.69086 27.6124C6.69066 25.9075 6.37999 23.4979 6.78917 20.664C6.95586 19.5047 7.29684 18.2999 7.93333 16.5647C8.244 15.7085 8.83503 14.0718 9.24421 12.9276C10.2065 10.215 10.396 9.73758 10.9112 8.64645C12.26 5.7974 13.9042 4.11524 16.0638 3.36509C17.3519 2.91803 19.1856 2.74375 20.6859 2.9256ZM10.6763 4.43349C9.20632 6.44904 8.41828 8.08574 7.09983 11.8668C6.73612 12.8897 6.2436 14.2688 6.00113 14.9356L5.54649 16.148L5.29644 16.1707C4.96304 16.2086 4.21289 16.057 3.81887 15.8828C3.18238 15.61 2.58377 14.8977 2.4398 14.2536C2.34888 13.8293 2.46254 12.9731 2.69743 12.3063C3.40212 10.3513 5.28129 7.67656 7.18318 5.93379C7.96364 5.22152 8.33493 4.95632 8.98658 4.6608C9.57003 4.3956 9.91101 4.30467 10.4111 4.29709C10.7597 4.28952 10.7748 4.29709 10.6763 4.43349ZM29.5741 4.55472C30.2712 4.83508 30.8319 5.21395 31.6048 5.92621C33.5294 7.6993 35.3934 10.3438 36.0981 12.3063C36.333 12.9731 36.4467 13.8293 36.3557 14.2536C36.2118 14.8977 35.6132 15.61 34.9767 15.8828C34.5826 16.057 33.8325 16.2086 33.4991 16.1707L33.249 16.148L32.7944 14.9356C32.5519 14.2688 32.0594 12.8897 31.6957 11.8668C30.3697 8.05543 29.6423 6.55512 28.1344 4.44864L27.998 4.26678L28.536 4.31225C28.8391 4.33498 29.2861 4.44106 29.5741 4.55472ZM21.4664 21.9825C21.9513 22.1568 21.9892 22.331 21.671 22.9827C21.2239 23.8844 20.0267 24.8997 19.3978 24.8997C18.7689 24.8997 17.5716 23.8844 17.1246 22.9827C16.8063 22.331 16.8442 22.1492 17.3292 21.9901C17.8596 21.8234 18.0793 21.8082 19.663 21.8309C20.7844 21.8461 21.1784 21.884 21.4664 21.9825Z" fill="#19063D"/>
<path d="M15.0634 13.1545C14.0935 13.4576 13.6313 14.526 14.0783 15.405C14.336 15.9051 14.9194 16.2612 15.4953 16.2612C15.8666 16.2612 16.4728 15.9203 16.7152 15.5717C16.988 15.1701 17.0562 14.4578 16.8592 14.0411C16.7152 13.7304 16.4197 13.4122 16.1394 13.2682C15.8817 13.1318 15.3134 13.0712 15.0634 13.1545Z" fill="#19063D"/>
<path d="M22.6485 13.2834C21.1937 14.0259 21.7089 16.2612 23.3381 16.2612C24.9672 16.2612 25.4824 14.0259 24.0276 13.2834C23.8003 13.1697 23.4896 13.0788 23.3381 13.0788C23.1865 13.0788 22.8759 13.1697 22.6485 13.2834Z" fill="#19063D"/>
</svg>
