<svg width="22" height="23" viewBox="0 0 22 23" fill="none" xmlns="http://www.w3.org/2000/svg">
<path d="M10.5385 0.742188C4.73936 0.742188 0.0380859 5.56947 0.0380859 11.5241C0.0380859 16.8647 3.82371 21.2876 8.78728 22.144V13.7735H6.25426V10.7612H8.78728V8.54015C8.78728 5.96304 10.3202 4.55866 12.5595 4.55866C13.632 4.55866 14.5536 4.64072 14.8212 4.67686V7.37063L13.2681 7.3714C12.0506 7.3714 11.8158 7.96535 11.8158 8.83725V10.7597H14.721L14.3421 13.7719H11.8158V22.2161C17.0111 21.5668 21.0389 17.0312 21.0389 11.521C21.0389 5.56947 16.3376 0.742188 10.5385 0.742188Z" fill="white"/>
</svg>
