<svg width="106" height="106" viewBox="0 0 106 106" fill="none" xmlns="http://www.w3.org/2000/svg">
<rect width="106" height="106" rx="25" fill="white"/>
<path d="M42.2271 27.1661C39.6353 27.9194 37.6946 30.4346 36.9157 34.0095C36.5582 35.6949 36.6093 38.4144 37.0434 40.0359C37.7584 42.7426 39.4054 45.028 41.3206 45.9728C42.2526 46.4452 42.342 46.458 43.6443 46.458C44.9594 46.458 45.0232 46.4452 45.9936 45.9601C48.9812 44.4918 50.8325 40.5849 50.6282 36.18C50.4239 31.9922 48.7514 28.8386 46.0063 27.5363C45.1764 27.1405 44.8828 27.0767 43.9252 27.0384C43.2485 27.0129 42.5846 27.0639 42.2271 27.1661Z" fill="#FF8139"/>
<path d="M60.1149 27.1661C59.1956 27.4087 58.3657 27.8811 57.5614 28.6088C54.6631 31.239 53.6545 36.8823 55.3015 41.2871C56.1569 43.5597 57.4465 45.1174 59.1829 45.9728C60.1404 46.4452 60.2171 46.458 61.5194 46.458C62.8217 46.458 62.911 46.4452 63.8431 45.9728C65.7965 45.0153 67.4946 42.6022 68.1841 39.8188C68.5543 38.3122 68.5799 35.6183 68.2351 34.0095C67.3286 29.7068 64.6857 26.9618 61.4555 27.0001C61.0342 27.0001 60.4341 27.0767 60.1149 27.1661Z" fill="#FF8139"/>
<path d="M26.5992 40.4838C24.9267 41.186 23.8286 42.5522 23.2924 44.6588C22.3476 48.2976 23.7776 53.5579 26.3566 55.9837C29.5358 58.9458 33.5831 57.618 34.7705 53.2259C35.2557 51.4001 35.1153 48.4508 34.4386 46.3952C33.5704 43.7395 31.7701 41.4669 29.855 40.6115C29.0634 40.254 27.3014 40.1901 26.5992 40.4838Z" fill="#FF8139"/>
<path d="M75.6012 40.5082C74.682 40.853 73.9414 41.3892 72.9711 42.4362C71.0304 44.5301 69.9579 47.773 70.1111 51.1182C70.226 53.5313 70.89 55.1783 72.2689 56.404C73.1626 57.2211 74.0819 57.5403 75.3842 57.4765C76.2651 57.4382 76.546 57.3743 77.3759 56.9658C78.474 56.4167 79.6613 55.2549 80.4019 54.0037C80.9381 53.1099 81.6403 51.2586 81.9212 50.0329C82.2149 48.7434 82.2021 45.8324 81.8957 44.7471C81.3722 42.8192 80.2614 41.2871 78.9464 40.6487C78.0782 40.2146 76.546 40.1635 75.6012 40.5082Z" fill="#FF8139"/>
<path d="M51.0746 50.9913C49.134 51.2594 47.2571 51.9872 45.6995 53.0724C44.8185 53.6853 34.1703 63.7079 33.3914 64.6527C32.6892 65.4954 32.0636 66.8743 31.821 68.1C31.0805 71.7771 33.0978 75.901 36.4429 77.548C38.7921 78.6971 41.218 78.6461 46.1336 77.2927C49.7213 76.3096 51.4321 76.0925 54.1133 76.284C55.8114 76.3989 56.6796 76.5649 60.1141 77.4204C63.1145 78.1737 64.0721 78.3396 65.3872 78.3269C70.8007 78.2758 74.8353 72.3771 73.0606 67.1041C72.6265 65.8146 72.2179 65.1379 71.1837 64.0526C69.5367 62.3162 60.2546 53.6342 59.4502 53.0724C57.1265 51.4382 53.7814 50.6083 51.0746 50.9913Z" fill="#FF8139"/>
</svg>
