<svg width="19" height="19" viewBox="0 0 19 19" fill="none" xmlns="http://www.w3.org/2000/svg">
<g clip-path="url(#clip0_41_399)">
<path d="M3.217 0.0828295C3.19936 0.0898867 3.11821 0.114586 3.04058 0.132228C2.96296 0.153399 2.87474 0.185155 2.84652 0.206326C2.80417 0.234553 3.61925 1.06727 6.85132 4.30287L10.909 8.3606L12.2216 7.02684C12.9414 6.29292 13.5236 5.68249 13.5095 5.66838C13.4954 5.65427 12.391 5.00503 11.0502 4.22524C9.7129 3.44545 7.65581 2.2493 6.48083 1.56478C4.09206 0.17457 4.06736 0.160456 3.80626 0.104C3.62983 0.068716 3.29463 0.0546017 3.217 0.0828295Z" fill="white"/>
<path d="M2.00671 1.07765C1.98554 1.13058 1.95025 1.24701 1.92908 1.33523C1.90791 1.43755 1.8938 4.17211 1.8938 9.11548C1.8938 15.8231 1.90086 16.7652 1.94673 16.9451C1.97848 17.058 2.01377 17.1745 2.02788 17.1992C2.04552 17.2345 3.23814 16.0595 6.10678 13.1697L10.161 9.09078L6.10325 5.03305L2.04552 0.975323L2.00671 1.07765Z" fill="white"/>
<path d="M13.0754 7.67226L11.6499 9.09776L13.0789 10.5268L14.508 11.9558L15.8311 11.1866C16.6039 10.735 17.2284 10.3468 17.3307 10.2551C17.867 9.76464 17.9941 8.96368 17.6412 8.31091C17.4648 7.99335 17.2249 7.82046 15.8452 7.0195C15.129 6.60314 14.5327 6.25735 14.5221 6.25382C14.5115 6.24676 13.8622 6.88541 13.0754 7.67226Z" fill="white"/>
<path d="M6.84071 13.9318C2.83944 17.9542 2.80416 17.9895 2.90295 18.0248C3.23816 18.1518 3.70744 18.1554 4.02853 18.0354C4.15909 17.986 12.9873 12.8697 13.4601 12.5663C13.5413 12.5169 13.5236 12.4957 12.2463 11.2043C11.53 10.481 10.9302 9.88818 10.909 9.88466C10.8914 9.8776 9.05659 11.7018 6.84071 13.9318Z" fill="white"/>
</g>
<defs>
<clipPath id="clip0_41_399">
<rect width="18.0657" height="18.0657" fill="white" transform="translate(0.835205 0.0649414)"/>
</clipPath>
</defs>
</svg>
