<svg width="29" height="29" viewBox="0 0 29 29" fill="none" xmlns="http://www.w3.org/2000/svg">
<path d="M3.75366 14.5001L6.14176 12.112M6.14176 12.112L14.5001 3.75366L22.8584 12.112M6.14176 12.112V24.0525C6.14176 24.7119 6.67635 25.2465 7.3358 25.2465H10.9179M22.8584 12.112L25.2465 14.5001M22.8584 12.112V24.0525C22.8584 24.7119 22.3238 25.2465 21.6644 25.2465H18.0822M10.9179 25.2465C11.5774 25.2465 12.112 24.7119 12.112 24.0525V19.2763C12.112 18.6168 12.6466 18.0822 13.306 18.0822H15.6941C16.3536 18.0822 16.8882 18.6168 16.8882 19.2763V24.0525C16.8882 24.7119 17.4228 25.2465 18.0822 25.2465M10.9179 25.2465H18.0822" stroke="white" stroke-width="2.3881" stroke-linecap="round" stroke-linejoin="round"/>
</svg>
