<svg width="22" height="23" viewBox="0 0 22 23" fill="none" xmlns="http://www.w3.org/2000/svg">
<path d="M20.9835 7.05558C20.9343 5.91459 20.7539 5.13017 20.4953 4.45046C20.2286 3.72896 19.8183 3.083 19.2807 2.54602C18.7554 2.00067 18.1194 1.57692 17.4218 1.30851C16.7531 1.04419 15.9898 0.859679 14.8738 0.809372C13.7494 0.754805 13.3924 0.742188 10.5406 0.742188C7.68881 0.742188 7.33186 0.754805 6.21162 0.805112C5.09555 0.855418 4.32826 1.04009 3.66356 1.30425C2.95766 1.57692 2.32581 1.99641 1.80056 2.54602C1.26713 3.083 0.852788 3.73322 0.59008 4.44636C0.331539 5.13017 0.151058 5.91033 0.10185 7.05132C0.0484748 8.20084 0.0361328 8.56577 0.0361328 11.4813C0.0361328 14.3967 0.0484748 14.7617 0.0976825 15.9069C0.14689 17.0479 0.327532 17.8323 0.586073 18.5121C0.852788 19.2336 1.26713 19.8795 1.80056 20.4165C2.32581 20.9618 2.96183 21.3856 3.65939 21.654C4.32826 21.9183 5.09138 22.1028 6.20761 22.1531C7.32769 22.2036 7.6848 22.2161 10.5366 22.2161C13.3884 22.2161 13.7454 22.2036 14.8656 22.1531C15.9817 22.1028 16.749 21.9183 17.4137 21.654C18.8253 21.096 19.9414 19.955 20.4871 18.5121C20.7455 17.8282 20.9262 17.0479 20.9754 15.9069C21.0246 14.7617 21.0369 14.3967 21.0369 11.4813C21.0369 8.56577 21.0328 8.20084 20.9835 7.05558ZM19.092 15.823C19.0468 16.8718 18.8745 17.4381 18.7309 17.8156C18.3779 18.7511 17.6517 19.4936 16.7366 19.8544C16.3673 20.0013 15.8094 20.1774 14.7875 20.2235C13.6796 20.2739 13.3474 20.2864 10.5448 20.2864C7.74219 20.2864 7.40575 20.2739 6.30186 20.2235C5.27603 20.1774 4.72208 20.0013 4.35279 19.8544C3.89741 19.6824 3.48292 19.4097 3.14648 19.0531C2.79769 18.7049 2.53098 18.2854 2.36268 17.8199C2.21906 17.4423 2.04676 16.8718 2.00172 15.8273C1.95235 14.6947 1.94017 14.3548 1.94017 11.4896C1.94017 8.62443 1.95235 8.28048 2.00172 7.1521C2.04676 6.10336 2.21906 5.53705 2.36268 5.1595C2.53098 4.6938 2.79769 4.2702 3.15064 3.92609C3.49109 3.56952 3.90142 3.29685 4.35695 3.12495C4.72625 2.97813 5.28437 2.80197 6.30603 2.75576C7.41392 2.70546 7.74636 2.69284 10.5488 2.69284C13.3556 2.69284 13.6878 2.70546 14.7917 2.75576C15.8175 2.80197 16.3715 2.97813 16.7408 3.12495C17.1962 3.29685 17.6107 3.56952 17.9471 3.92609C18.2959 4.2743 18.5626 4.6938 18.7309 5.1595C18.8745 5.53705 19.0468 6.10746 19.092 7.1521C19.1412 8.28474 19.1536 8.62443 19.1536 11.4896C19.1536 14.3548 19.1412 14.6904 19.092 15.823Z" fill="white"/>
<path d="M10.5363 6.87866C8.05188 6.87866 6.03613 8.93968 6.03613 11.4802C6.03613 14.0207 8.05188 16.0818 10.5363 16.0818C13.0209 16.0818 15.0365 14.0207 15.0365 11.4802C15.0365 8.93968 13.0209 6.87866 10.5363 6.87866ZM10.5363 14.4651C8.92454 14.4651 7.61715 13.1284 7.61715 11.4802C7.61715 9.83199 8.92454 8.4953 10.5363 8.4953C12.1482 8.4953 13.4555 9.83199 13.4555 11.4802C13.4555 13.1284 12.1482 14.4651 10.5363 14.4651Z" fill="white"/>
<path d="M18.0365 6.36637C18.0365 7.21341 17.3649 7.90022 16.5363 7.90022C15.708 7.90022 15.0364 7.21341 15.0364 6.36637C15.0364 5.51913 15.708 4.83252 16.5363 4.83252C17.3649 4.83252 18.0365 5.51913 18.0365 6.36637Z" fill="white"/>
</svg>
