<svg width="22" height="22" viewBox="0 0 22 22" fill="none" xmlns="http://www.w3.org/2000/svg">
<path d="M12.8333 9.16667H17.2003C18.5631 9.16667 19.4495 10.6009 18.8401 11.8199L15.6317 18.2366C15.3212 18.8577 14.6864 19.25 13.9919 19.25H10.309C10.1591 19.25 10.0098 19.2316 9.86438 19.1953L6.41667 18.3333M12.8333 9.16667V4.58333C12.8333 3.57081 12.0125 2.75 11 2.75H10.9125C10.4546 2.75 10.0833 3.12122 10.0833 3.57915C10.0833 4.23393 9.88952 4.87406 9.52631 5.41887L6.41667 10.0833V18.3333M12.8333 9.16667H11M6.41667 18.3333H4.58333C3.57081 18.3333 2.75 17.5125 2.75 16.5V11C2.75 9.98748 3.57081 9.16667 4.58333 9.16667H6.875" stroke="#1F2130" stroke-width="1.83333" stroke-linecap="round" stroke-linejoin="round"/>
</svg>
