<svg width="22" height="23" viewBox="0 0 22 23" fill="none" xmlns="http://www.w3.org/2000/svg">
<path d="M19.5275 0.742188H1.55585C0.719325 0.742188 0.0412598 1.43553 0.0412598 2.2909V20.6674C0.0412598 21.5227 0.719325 22.2161 1.55585 22.2161H19.5275C20.364 22.2161 21.042 21.5227 21.042 20.6674V2.2909C21.042 1.43553 20.364 0.742188 19.5275 0.742188V0.742188ZM7.49036 16.9734H4.93304V9.10634H7.49036V16.9734ZM6.21178 8.03208H6.19512C5.33696 8.03208 4.78195 7.42803 4.78195 6.67309C4.78195 5.90111 5.35394 5.31377 6.22876 5.31377C7.10358 5.31377 7.64193 5.90111 7.6586 6.67309C7.6586 7.42803 7.10358 8.03208 6.21178 8.03208ZM16.7115 16.9734H14.1545V12.7647C14.1545 11.707 13.7843 10.9857 12.859 10.9857C12.1525 10.9857 11.7318 11.4722 11.5469 11.942C11.4793 12.11 11.4628 12.345 11.4628 12.5801V16.9734H8.90561C8.90561 16.9734 8.9391 9.8444 8.90561 9.10634H11.4628V10.2202C11.8026 9.68417 12.4107 8.9217 13.7674 8.9217C15.4499 8.9217 16.7115 10.0461 16.7115 12.4624V16.9734Z" fill="white"/>
</svg>
