<svg width="22" height="22" viewBox="0 0 22 22" fill="none" xmlns="http://www.w3.org/2000/svg">
<path d="M18.4905 8.21835C18.4912 6.94883 18.1712 5.69972 17.5599 4.58702C16.9487 3.47432 16.0662 2.53413 14.9944 1.85379C13.9226 1.17344 12.6962 0.774993 11.4292 0.695462C10.1622 0.615932 8.89562 0.857895 7.74714 1.39888C6.59866 1.93986 5.60552 2.76231 4.85997 3.78985C4.11442 4.81738 3.64065 6.01667 3.48265 7.27631C3.32464 8.53596 3.48755 9.81511 3.95622 10.9949C4.42489 12.1748 5.18413 13.217 6.16342 14.0249V20.5454C6.16334 20.6622 6.19313 20.7771 6.24996 20.8791C6.30678 20.9812 6.38876 21.067 6.4881 21.1284C6.58744 21.1898 6.70084 21.2248 6.81752 21.2301C6.9342 21.2353 7.05028 21.2106 7.15472 21.1583L10.9573 19.2614L14.7607 21.1626C14.8561 21.2083 14.9606 21.2314 15.0663 21.2303C15.2479 21.2303 15.4221 21.1581 15.5506 21.0297C15.679 20.9012 15.7511 20.7271 15.7511 20.5454V14.0249C16.608 13.3192 17.298 12.4326 17.7716 11.4286C18.2452 10.4247 18.4907 9.32839 18.4905 8.21835ZM4.79375 8.21835C4.79375 6.99932 5.15523 5.80766 5.83249 4.79407C6.50975 3.78048 7.47236 2.99049 8.5986 2.52398C9.72484 2.05748 10.9641 1.93542 12.1597 2.17324C13.3553 2.41106 14.4536 2.99808 15.3156 3.86007C16.1775 4.72206 16.7646 5.82029 17.0024 7.0159C17.2402 8.21151 17.1182 9.45079 16.6516 10.577C16.1851 11.7033 15.3951 12.6659 14.3816 13.3431C13.368 14.0204 12.1763 14.3819 10.9573 14.3819C9.32317 14.3801 7.7565 13.7301 6.60101 12.5746C5.44551 11.4191 4.79556 9.85246 4.79375 8.21835ZM14.3815 19.4377L11.2629 17.8788C11.1677 17.8312 11.0628 17.8064 10.9564 17.8064C10.85 17.8064 10.7451 17.8312 10.65 17.8788L7.5331 19.4377V14.9272C8.59319 15.469 9.76674 15.7515 10.9573 15.7515C12.1478 15.7515 13.3214 15.469 14.3815 14.9272V19.4377ZM10.9573 13.0122C11.9054 13.0122 12.8323 12.7311 13.6206 12.2043C14.409 11.6775 15.0234 10.9288 15.3862 10.0529C15.7491 9.17692 15.844 8.21303 15.659 7.28311C15.4741 6.35319 15.0175 5.49901 14.3471 4.82858C13.6766 4.15814 12.8224 3.70157 11.8925 3.5166C10.9626 3.33163 9.99872 3.42656 9.12275 3.7894C8.24679 4.15223 7.49809 4.76668 6.97133 5.55502C6.44458 6.34337 6.16342 7.27021 6.16342 8.21835C6.16478 9.48934 6.67028 10.7079 7.56901 11.6066C8.46774 12.5053 9.68629 13.0108 10.9573 13.0122ZM10.9573 4.79416C11.6345 4.79416 12.2966 4.99499 12.8597 5.37124C13.4228 5.7475 13.8617 6.28228 14.1208 6.90797C14.38 7.53366 14.4478 8.22215 14.3157 8.88637C14.1836 9.5506 13.8574 10.1607 13.3785 10.6396C12.8997 11.1185 12.2895 11.4446 11.6253 11.5767C10.9611 11.7089 10.2726 11.6411 9.6469 11.3819C9.02122 11.1227 8.48643 10.6838 8.11018 10.1207C7.73392 9.55762 7.5331 8.89559 7.5331 8.21835C7.5331 7.3102 7.89386 6.43924 8.53602 5.79708C9.17818 5.15492 10.0491 4.79416 10.9573 4.79416Z" fill="#1F2130"/>
</svg>
