<svg width="706" height="318" viewBox="0 0 706 318" fill="none" xmlns="http://www.w3.org/2000/svg">
<path d="M52.7796 5.26693C51.093 5.00112 49.3052 5.91929 47.8977 7.75675C47.2397 8.62558 46.5375 10.1965 46.3499 11.2416C46.0312 12.9838 46.3596 14.7354 47.202 15.7915C47.6086 16.3127 47.6564 16.344 48.402 16.6943C49.155 17.048 49.195 17.0579 49.8811 17.0411C51.9867 17.004 54.0976 15.2649 55.1654 12.6878C56.1748 10.235 56.0654 7.97947 54.8439 6.49545C54.4752 6.04561 54.3242 5.93007 53.7862 5.65057C53.4057 5.45394 53.0118 5.30461 52.7796 5.26693Z" fill="#12141D" fill-opacity="0.69"/>
<path d="M63.0216 10.0784C62.43 9.97 61.8277 10.0173 61.1714 10.2176C58.8045 10.944 56.7091 13.904 56.4673 16.8691C56.3458 18.4005 56.6652 19.6392 57.4294 20.596C57.8506 21.1241 57.891 21.152 58.6367 21.5023C59.3824 21.8526 59.437 21.8693 60.0977 21.8495C61.4738 21.8267 63.0951 20.9017 64.2386 19.4935C64.8558 18.7304 65.595 17.1948 65.8303 16.1809C66.4686 13.4735 65.6937 11.1908 63.8338 10.3439C63.5926 10.2306 63.2284 10.113 63.0216 10.0784Z" fill="#12141D" fill-opacity="0.69"/>
<path d="M40.249 8.68944C39.1024 8.64165 38.1063 9.12853 37.2326 10.1905C35.7129 12.0199 35.1168 15.4165 35.941 17.4992C36.9646 20.0503 39.6392 20.3786 41.5004 18.1832C42.2693 17.2683 42.9822 15.5418 43.1476 14.1828C43.3648 12.4287 42.9453 10.6432 42.0788 9.63826C41.7217 9.22065 40.7301 8.71018 40.249 8.68944Z" fill="#12141D" fill-opacity="0.69"/>
<path d="M68.3 21.8839C67.6809 21.834 67.1126 21.9419 66.2754 22.2804C64.601 22.9573 63.1147 24.5257 62.3027 26.4823C61.7194 27.8949 61.6565 29.0165 62.1164 30.0892C62.4083 30.7974 62.8488 31.2275 63.6117 31.5412C64.1264 31.7562 64.3044 31.7952 64.8895 31.7845C65.6659 31.7655 66.6582 31.4196 67.4188 30.9024C67.9662 30.5349 68.8663 29.6637 69.3568 29.0375C69.8718 28.3781 70.6475 26.7079 70.7639 26.0041C70.9827 24.7594 70.7588 23.5833 70.1775 22.8641C69.7972 22.382 68.9337 21.9407 68.3 21.8839Z" fill="#12141D" fill-opacity="0.69"/>
<path d="M51.4372 21.2885C50.2539 20.92 48.9835 20.8319 47.7997 21.0343C47.1304 21.1482 38.3377 24.0229 37.6376 24.3544C37.0089 24.648 36.2798 25.2693 35.8112 25.9058C34.3981 27.8121 34.4439 30.7159 35.9163 32.5588C36.9523 33.8486 38.3551 34.4718 41.5336 35.0191C43.8523 35.4212 44.8903 35.7571 46.374 36.5879C47.3154 37.1105 47.7679 37.439 49.5043 38.8526C51.0197 40.091 51.5233 40.4436 52.2797 40.79C55.3931 42.2168 59.2898 39.9246 59.692 36.428C59.7903 35.5729 59.7383 35.0755 59.4381 34.1759C58.9621 32.7387 55.9826 25.2709 55.6731 24.7329C54.7822 23.1721 53.0901 21.7972 51.4372 21.2885Z" fill="#12141D" fill-opacity="0.69"/>
<path d="M697.65 217.202C698.261 215.607 697.735 213.667 696.231 211.908C695.519 211.084 694.128 210.07 693.145 209.668C691.508 208.994 689.726 208.95 688.518 209.554C687.923 209.843 687.883 209.883 687.385 210.54C686.882 211.203 686.864 211.24 686.738 211.914C686.335 213.981 687.597 216.408 689.895 217.989C692.083 219.488 694.312 219.85 696.018 218.965C696.535 218.698 696.679 218.574 697.065 218.106C697.336 217.775 697.565 217.421 697.65 217.202Z" fill="#12141D" fill-opacity="0.69"/>
<path d="M690.81 226.217C691.04 225.661 691.119 225.062 691.06 224.378C690.842 221.912 688.384 219.246 685.534 218.392C684.061 217.954 682.783 218.009 681.688 218.557C681.084 218.859 681.048 218.893 680.55 219.549C680.052 220.205 680.025 220.255 679.906 220.906C679.642 222.256 680.209 224.035 681.348 225.446C681.966 226.209 683.314 227.252 684.257 227.693C686.772 228.881 689.166 228.599 690.382 226.956C690.543 226.744 690.733 226.412 690.81 226.217Z" fill="#12141D" fill-opacity="0.69"/>
<path d="M696.912 204.233C697.198 203.122 696.929 202.046 696.073 200.97C694.6 199.103 691.402 197.812 689.193 198.185C686.485 198.655 685.607 201.202 687.366 203.48C688.101 204.422 689.641 205.479 690.936 205.924C692.606 206.502 694.44 206.464 695.603 205.825C696.086 205.563 696.792 204.699 696.912 204.233Z" fill="#12141D" fill-opacity="0.69"/>
<path d="M678.165 228.921C678.342 228.325 678.355 227.747 678.199 226.858C677.885 225.079 676.661 223.299 674.916 222.097C673.656 221.232 672.572 220.937 671.427 221.164C670.674 221.302 670.162 221.643 669.696 222.324C669.378 222.782 669.303 222.948 669.192 223.523C669.049 224.286 669.18 225.329 669.528 226.18C669.773 226.792 670.438 227.854 670.948 228.464C671.486 229.105 672.958 230.212 673.622 230.472C674.794 230.946 675.99 230.972 676.815 230.553C677.366 230.281 677.977 229.529 678.165 228.921Z" fill="#12141D" fill-opacity="0.69"/>
<path d="M682.259 212.552C682.866 211.471 683.217 210.247 683.265 209.047C683.293 208.369 682.313 199.17 682.135 198.416C681.979 197.74 681.523 196.898 680.998 196.307C679.428 194.528 676.578 193.968 674.469 195.024C672.992 195.769 672.09 197.011 670.893 200.006C670.016 202.19 669.472 203.135 668.35 204.413C667.643 205.225 667.227 205.599 665.483 207.003C663.956 208.227 663.506 208.646 663.01 209.314C660.966 212.062 662.396 216.351 665.732 217.472C666.548 217.747 667.046 217.799 667.988 217.693C669.493 217.527 677.417 216.168 678.008 215.977C679.72 215.431 681.417 214.062 682.259 212.552Z" fill="#12141D" fill-opacity="0.69"/>
<path d="M11.7432 282.894C10.2922 283.794 9.53788 285.657 9.6718 287.967C9.74083 289.055 10.2348 290.703 10.7753 291.617C11.6716 293.145 13.0641 294.257 14.3917 294.507C15.04 294.636 15.0966 294.628 15.8901 294.407C16.6914 294.183 16.7281 294.164 17.2367 293.704C18.8071 292.3 19.2702 289.605 18.396 286.956C17.5588 284.439 16.003 282.802 14.1088 282.476C13.5358 282.376 13.346 282.387 12.7561 282.527C12.3394 282.627 11.9436 282.771 11.7432 282.894Z" fill="#12141D" fill-opacity="0.69"/>
<path d="M22.642 279.849C22.1232 280.153 21.6979 280.582 21.3317 281.163C20.0135 283.258 20.3594 286.869 22.1126 289.272C23.0206 290.511 24.0714 291.241 25.275 291.466C25.9388 291.591 25.9877 291.586 26.7811 291.364C27.5746 291.143 27.6269 291.12 28.1144 290.673C29.1416 289.757 29.7655 287.998 29.7119 286.185C29.6811 285.204 29.2381 283.558 28.7543 282.637C27.4696 280.169 25.3922 278.947 23.4305 279.52C23.1738 279.591 22.8213 279.74 22.642 279.849Z" fill="#12141D" fill-opacity="0.69"/>
<path d="M4.48813 293.668C3.58858 294.381 3.15209 295.4 3.18392 296.775C3.22758 299.153 4.99413 302.114 6.97839 303.153C9.41954 304.417 11.6595 302.919 11.6355 300.041C11.6203 298.846 11.0328 297.073 10.2706 295.936C9.28967 294.465 7.80601 293.387 6.49354 293.192C5.95039 293.109 4.86601 293.37 4.48813 293.668Z" fill="#12141D" fill-opacity="0.69"/>
<path d="M34.3483 285.343C33.8469 285.709 33.487 286.162 33.0739 286.965C32.2479 288.571 32.1464 290.73 32.8091 292.742C33.2898 294.192 33.9746 295.083 35.0234 295.595C35.707 295.941 36.3214 295.979 37.104 295.718C37.6343 295.545 37.7945 295.458 38.2307 295.068C38.8062 294.547 39.3319 293.637 39.5702 292.748C39.7448 292.113 39.8575 290.865 39.8201 290.07C39.7795 289.235 39.2763 287.463 38.9049 286.854C38.2578 285.769 37.3203 285.024 36.4104 284.859C35.8075 284.742 34.8653 284.972 34.3483 285.343Z" fill="#12141D" fill-opacity="0.69"/>
<path d="M21.189 295.904C20.0522 296.397 19.0325 297.16 18.2682 298.086C17.8357 298.61 13.0537 306.529 12.74 307.237C12.4556 307.87 12.3091 308.817 12.3699 309.605C12.5445 311.971 14.4755 314.14 16.794 314.575C18.4209 314.875 19.8903 314.431 22.6549 312.77C24.6735 311.56 25.679 311.137 27.3452 310.797C28.3994 310.578 28.9566 310.531 31.1948 310.468C33.1511 310.416 33.7628 310.354 34.5618 310.123C37.8515 309.17 39.3058 304.89 37.327 301.979C36.843 301.267 36.4789 300.924 35.6641 300.439C34.3651 299.662 27.232 295.952 26.6463 295.746C24.9523 295.146 22.773 295.21 21.189 295.904Z" fill="#12141D" fill-opacity="0.69"/>
</svg>
