<svg width="24" height="21" viewBox="0 0 24 21" fill="none" xmlns="http://www.w3.org/2000/svg">
<path d="M23.0407 3.0652C22.1853 3.45527 21.2739 3.71382 20.3237 3.83936C21.3012 3.23259 22.0473 2.27908 22.3981 1.1298C21.4867 1.69473 20.4804 2.09376 19.408 2.31645C18.5426 1.35846 17.3091 0.765137 15.9636 0.765137C13.353 0.765137 11.2513 2.96806 11.2513 5.66865C11.2513 6.05723 11.2829 6.43086 11.3605 6.78655C7.44032 6.58778 3.97151 4.63445 1.64123 1.65886C1.2344 2.39267 0.995769 3.23259 0.995769 4.13677C0.995769 5.83455 1.83674 7.33953 3.09029 8.21083C2.33269 8.19589 1.58948 7.96722 0.95983 7.60704C0.95983 7.62199 0.95983 7.64142 0.95983 7.66085C0.95983 10.0431 2.59433 12.0219 4.73772 12.4777C4.3539 12.5868 3.93557 12.6391 3.50143 12.6391C3.19954 12.6391 2.89478 12.6212 2.6087 12.5554C3.21967 14.4968 4.95336 15.924 7.01481 15.9704C5.4105 17.2751 3.37348 18.0612 1.16828 18.0612C0.781573 18.0612 0.410684 18.0433 0.0397949 17.994C2.12856 19.3943 4.60403 20.1939 7.27357 20.1939C15.9506 20.1939 20.6946 12.7213 20.6946 6.24404C20.6946 6.02734 20.6874 5.81811 20.6773 5.61037C21.6132 4.9199 22.3995 4.05756 23.0407 3.0652Z" fill="white"/>
</svg>
