<svg width="205" height="54" viewBox="0 0 205 54" fill="none" xmlns="http://www.w3.org/2000/svg">
<path d="M11.079 10.0662C9.58557 10.5002 8.4673 11.9496 8.01852 14.0095C7.81253 14.9807 7.84196 16.5477 8.09209 17.482C8.50409 19.0417 9.45314 20.3586 10.5567 20.9031C11.0938 21.1753 11.1453 21.1826 11.8957 21.1826C12.6534 21.1826 12.6902 21.1753 13.2494 20.8957C14.9709 20.0496 16.0377 17.7984 15.92 15.2602C15.8022 12.8471 14.8385 11.0299 13.2567 10.2795C12.7785 10.0515 12.6093 10.0147 12.0575 9.9926C11.6676 9.97789 11.285 10.0073 11.079 10.0662Z" fill="#FF8139"/>
<path d="M21.3864 10.0662C20.8567 10.206 20.3785 10.4782 19.915 10.8975C18.245 12.4131 17.6638 15.6649 18.6128 18.203C19.1057 19.5126 19.8488 20.4101 20.8493 20.9031C21.4011 21.1753 21.4453 21.1826 22.1957 21.1826C22.9461 21.1826 22.9976 21.1753 23.5346 20.9031C24.6603 20.3513 25.6388 18.9608 26.036 17.357C26.2494 16.4888 26.2641 14.9365 26.0655 14.0095C25.5431 11.5302 24.0202 9.94846 22.1589 9.97053C21.9161 9.97053 21.5703 10.0147 21.3864 10.0662Z" fill="#FF8139"/>
<path d="M2.07395 17.7402C1.11018 18.1448 0.47748 18.932 0.168485 20.1459C-0.375934 22.2426 0.448052 25.2737 1.93417 26.6716C3.76606 28.3784 6.09824 27.6133 6.78244 25.0825C7.06201 24.0304 6.98108 22.3309 6.59116 21.1465C6.09088 19.6162 5.05354 18.3066 3.94999 17.8137C3.49385 17.6077 2.47859 17.5709 2.07395 17.7402Z" fill="#FF8139"/>
<path d="M30.31 17.7546C29.7803 17.9532 29.3536 18.2622 28.7945 18.8655C27.6762 20.0721 27.0582 21.9407 27.1465 23.8683C27.2127 25.2587 27.5953 26.2078 28.3898 26.9141C28.9048 27.3849 29.4345 27.5688 30.185 27.5321C30.6926 27.51 30.8544 27.4732 31.3327 27.2378C31.9654 26.9214 32.6496 26.2519 33.0763 25.531C33.3853 25.016 33.7899 23.9492 33.9517 23.2429C34.121 22.4999 34.1136 20.8225 33.937 20.1971C33.6354 19.0862 32.9953 18.2034 32.2376 17.8355C31.7373 17.5854 30.8544 17.556 30.31 17.7546Z" fill="#FF8139"/>
<path d="M16.1773 23.7946C15.059 23.9491 13.9775 24.3685 13.08 24.9938C12.5724 25.347 6.4366 31.1222 5.98783 31.6666C5.58319 32.1522 5.2227 32.9467 5.08291 33.653C4.65621 35.7718 5.81861 38.1482 7.74615 39.0972C9.09984 39.7593 10.4977 39.7299 13.3301 38.9501C15.3974 38.3836 16.3833 38.2585 17.9283 38.3689C18.9067 38.4351 19.407 38.5307 21.3861 39.0236C23.115 39.4577 23.6667 39.5533 24.4245 39.546C27.5439 39.5166 29.8687 36.1176 28.8461 33.0792C28.5959 32.3361 28.3605 31.9462 27.7646 31.3208C26.8155 30.3203 21.467 25.3175 21.0035 24.9938C19.6645 24.0521 17.737 23.5739 16.1773 23.7946Z" fill="#FF8139"/>
<path d="M11.079 10.0662C9.58557 10.5002 8.4673 11.9496 8.01852 14.0095C7.81253 14.9807 7.84196 16.5477 8.09209 17.482C8.50409 19.0417 9.45314 20.3586 10.5567 20.9031C11.0938 21.1753 11.1453 21.1826 11.8957 21.1826C12.6534 21.1826 12.6902 21.1753 13.2494 20.8957C14.9709 20.0496 16.0377 17.7984 15.92 15.2602C15.8022 12.8471 14.8385 11.0299 13.2567 10.2795C12.7785 10.0515 12.6093 10.0147 12.0575 9.9926C11.6676 9.97789 11.285 10.0073 11.079 10.0662Z" fill="#FF8139"/>
<path d="M21.3864 10.0662C20.8567 10.206 20.3785 10.4782 19.915 10.8975C18.245 12.4131 17.6638 15.6649 18.6128 18.203C19.1057 19.5126 19.8488 20.4101 20.8493 20.9031C21.4011 21.1753 21.4453 21.1826 22.1957 21.1826C22.9461 21.1826 22.9976 21.1753 23.5346 20.9031C24.6603 20.3513 25.6388 18.9608 26.036 17.357C26.2494 16.4888 26.2641 14.9365 26.0655 14.0095C25.5431 11.5302 24.0202 9.94846 22.1589 9.97053C21.9161 9.97053 21.5703 10.0147 21.3864 10.0662Z" fill="#FF8139"/>
<path d="M2.07395 17.7402C1.11018 18.1448 0.47748 18.932 0.168485 20.1459C-0.375934 22.2426 0.448052 25.2737 1.93417 26.6716C3.76606 28.3784 6.09824 27.6133 6.78244 25.0825C7.06201 24.0304 6.98108 22.3309 6.59116 21.1465C6.09088 19.6162 5.05354 18.3066 3.94999 17.8137C3.49385 17.6077 2.47859 17.5709 2.07395 17.7402Z" fill="#FF8139"/>
<path d="M30.31 17.7546C29.7803 17.9532 29.3536 18.2622 28.7945 18.8655C27.6762 20.0721 27.0582 21.9407 27.1465 23.8683C27.2127 25.2587 27.5953 26.2078 28.3898 26.9141C28.9048 27.3849 29.4345 27.5688 30.185 27.5321C30.6926 27.51 30.8544 27.4732 31.3327 27.2378C31.9654 26.9214 32.6496 26.2519 33.0763 25.531C33.3853 25.016 33.7899 23.9492 33.9517 23.2429C34.121 22.4999 34.1136 20.8225 33.937 20.1971C33.6354 19.0862 32.9953 18.2034 32.2376 17.8355C31.7373 17.5854 30.8544 17.556 30.31 17.7546Z" fill="#FF8139"/>
<path d="M16.1773 23.7946C15.059 23.9491 13.9775 24.3685 13.08 24.9938C12.5724 25.347 6.4366 31.1222 5.98783 31.6666C5.58319 32.1522 5.2227 32.9467 5.08291 33.653C4.65621 35.7718 5.81861 38.1482 7.74615 39.0972C9.09984 39.7593 10.4977 39.7299 13.3301 38.9501C15.3974 38.3836 16.3833 38.2585 17.9283 38.3689C18.9067 38.4351 19.407 38.5307 21.3861 39.0236C23.115 39.4577 23.6667 39.5533 24.4245 39.546C27.5439 39.5166 29.8687 36.1176 28.8461 33.0792C28.5959 32.3361 28.3605 31.9462 27.7646 31.3208C26.8155 30.3203 21.467 25.3175 21.0035 24.9938C19.6645 24.0521 17.737 23.5739 16.1773 23.7946Z" fill="#FF8139"/>
<path d="M51.4792 39.4526C50.8562 39.4526 50.5446 39.206 50.5446 38.7127V38.557C50.5446 38.2454 50.8042 37.7781 51.3235 37.1551C51.8427 36.506 52.1023 35.857 52.1023 35.2079V16.0484C52.1023 15.3994 51.8427 14.7634 51.3235 14.1403C50.8042 13.4912 50.5446 13.011 50.5446 12.6994V12.5437C50.5446 12.0504 50.8562 11.8038 51.4792 11.8038H61.1758C64.9402 11.8038 67.9517 12.5566 70.2104 14.0624C72.469 15.5682 73.5983 17.8917 73.5983 21.033C73.5983 23.9667 72.5858 26.3162 70.5609 28.0815C68.5359 29.821 65.8359 30.6907 62.4609 30.6907H59.2287V35.2079C59.2287 35.857 59.5143 36.506 60.0854 37.1551C60.6825 37.7781 60.9811 38.2454 60.9811 38.557V38.7127C60.9811 39.206 60.6696 39.4526 60.0465 39.4526H51.4792ZM61.02 27.9647H62.4609C63.6811 27.9647 64.6157 27.4585 65.2647 26.446C65.9397 25.4335 66.2772 24.1744 66.2772 22.6686C66.2772 20.2542 65.745 18.2941 64.6806 16.7883C63.6421 15.2566 62.4739 14.4908 61.1758 14.4908H60.6306C59.696 14.4908 59.2287 15.1138 59.2287 16.36V26.0955C59.2287 27.3416 59.8258 27.9647 61.02 27.9647ZM90.4231 33.2998C90.7087 33.0142 91.0203 32.9363 91.3578 33.0661C91.7212 33.17 91.89 33.4296 91.864 33.845C91.838 34.4421 91.6563 35.0652 91.3188 35.7142C91.0073 36.3632 90.553 37.0123 89.9558 37.6613C89.3587 38.2844 88.528 38.8036 87.4635 39.219C86.4251 39.6344 85.2438 39.8421 83.9198 39.8421C81.0121 39.8421 78.6367 38.9334 76.7934 37.1161C74.9761 35.2988 74.0675 32.9233 74.0675 29.9897C74.0675 27.1599 75.0021 24.8623 76.8713 23.097C78.7405 21.3056 81.0251 20.397 83.7251 20.371C86.0357 20.3451 87.9049 20.8513 89.3328 21.8898C90.7606 22.9282 91.4746 24.3042 91.4746 26.0176C91.4746 27.3676 90.8905 28.5618 89.7222 29.6003C88.5799 30.6387 87.0871 31.3008 85.2438 31.5863C83.9458 31.82 82.6477 31.9109 81.3496 31.8589C82.44 33.9618 84.0756 35.0132 86.2563 35.0132C88.1775 35.0132 89.5664 34.4421 90.4231 33.2998ZM82.9073 22.4349C82.1025 22.4349 81.4535 22.8373 80.9602 23.6421C80.4929 24.447 80.2593 25.4984 80.2593 26.7965C80.2593 27.8609 80.3761 28.8604 80.6097 29.795C81.3367 29.821 81.9857 29.795 82.5568 29.7171C84.3222 29.4056 85.2049 28.0037 85.2049 25.5114C85.1789 24.6546 84.9453 23.9277 84.5039 23.3306C84.0886 22.7335 83.5564 22.4349 82.9073 22.4349ZM101.679 39.8421C99.7062 39.8421 98.1485 39.219 97.0062 37.9728C95.8898 36.7267 95.3317 34.9483 95.3317 32.6378V23.4085H93.8519C93.5923 23.4085 93.3716 23.3306 93.1899 23.1748C93.0341 22.9931 92.9562 22.7724 92.9562 22.5128V21.6561C92.9562 21.059 93.2548 20.7604 93.8519 20.7604H94.5918C95.786 20.7604 96.8115 20.41 97.6682 19.709C98.5249 18.9821 99.0831 18.0215 99.3427 16.8273C99.4725 16.1523 99.823 15.8148 100.394 15.8148H101.29C101.991 15.8148 102.341 16.1523 102.341 16.8273V20.7604H106.352C106.612 20.7604 106.82 20.8513 106.975 21.033C107.157 21.1888 107.248 21.3965 107.248 21.6561V22.5128C107.248 22.7724 107.157 22.9931 106.975 23.1748C106.82 23.3306 106.612 23.4085 106.352 23.4085H102.341V32.7546C102.341 33.4036 102.51 33.9229 102.847 34.3123C103.185 34.6757 103.6 34.8575 104.094 34.8575C105.21 34.8575 106.067 34.3772 106.664 33.4166C106.846 33.183 107.053 33.0532 107.287 33.0272C107.521 32.9753 107.715 33.0142 107.871 33.144C108.053 33.2738 108.144 33.4556 108.144 33.6892C108.144 35.3248 107.559 36.7656 106.391 38.0118C105.249 39.232 103.678 39.8421 101.679 39.8421ZM110.463 39.4526C109.84 39.4526 109.528 39.206 109.528 38.7127V38.557C109.528 38.2454 109.788 37.7781 110.307 37.1551C110.826 36.506 111.086 35.857 111.086 35.2079V16.0484C111.086 15.3994 110.826 14.7634 110.307 14.1403C109.788 13.4912 109.528 13.011 109.528 12.6994V12.5437C109.528 12.0504 109.84 11.8038 110.463 11.8038H120.159C123.924 11.8038 126.935 12.5566 129.194 14.0624C131.453 15.5682 132.582 17.8917 132.582 21.033C132.582 23.9667 131.569 26.3162 129.544 28.0815C127.519 29.821 124.819 30.6907 121.444 30.6907H118.212V35.2079C118.212 35.857 118.498 36.506 119.069 37.1551C119.666 37.7781 119.965 38.2454 119.965 38.557V38.7127C119.965 39.206 119.653 39.4526 119.03 39.4526H110.463ZM120.004 27.9647H121.444C122.665 27.9647 123.599 27.4585 124.248 26.446C124.923 25.4335 125.261 24.1744 125.261 22.6686C125.261 20.2542 124.729 18.2941 123.664 16.7883C122.626 15.2566 121.457 14.4908 120.159 14.4908H119.614C118.68 14.4908 118.212 15.1138 118.212 16.36V26.0955C118.212 27.3416 118.809 27.9647 120.004 27.9647ZM154.132 35.169C154.132 35.87 154.21 36.4022 154.366 36.7656C154.547 37.1291 154.742 37.3368 154.95 37.3887C155.184 37.4147 155.378 37.5055 155.534 37.6613C155.716 37.8171 155.807 38.0637 155.807 38.4012C155.807 38.8945 155.469 39.232 154.794 39.4137C154.145 39.5954 153.146 39.6863 151.796 39.6863C150.575 39.6863 149.68 39.5175 149.109 39.18C148.563 38.8425 148.239 38.2584 148.135 37.4276C147.097 39.0373 145.266 39.8421 142.644 39.8421C140.567 39.8421 138.828 39.1671 137.426 37.8171C136.05 36.4411 135.362 34.5589 135.362 32.1705V25.6671C135.362 24.9921 135.102 24.3431 134.583 23.72C134.064 23.097 133.804 22.6556 133.804 22.396V22.2402C133.804 21.721 134.103 21.4225 134.7 21.3446L140.502 20.5657C141.723 20.41 142.333 20.6696 142.333 21.3446L142.216 32.8714C142.19 34.4291 142.372 35.5584 142.761 36.2594C143.176 36.9344 143.825 37.2719 144.708 37.2719C145.435 37.2719 146.045 36.9214 146.538 36.2204C147.032 35.4935 147.278 34.5459 147.278 33.3777V25.6671C147.278 24.9921 147.019 24.3431 146.499 23.72C145.98 23.097 145.721 22.6556 145.721 22.396V22.2402C145.721 21.721 146.019 21.4225 146.616 21.3446L152.419 20.5657C153.561 20.41 154.132 20.6696 154.132 21.3446V35.169ZM169.542 20.371C171.956 20.371 174.085 21.2018 175.928 22.8633C177.797 24.4989 178.732 26.8094 178.732 29.795C178.732 32.7806 177.823 35.2079 176.006 37.0772C174.215 38.9204 172.06 39.8421 169.542 39.8421C167.958 39.8421 166.634 39.4656 165.57 38.7127V43.4247C165.57 44.0738 165.855 44.7098 166.426 45.3329C167.023 45.9819 167.322 46.4622 167.322 46.7737V46.9295C167.322 47.4228 167.01 47.6694 166.387 47.6694H158.132C157.508 47.6694 157.197 47.4228 157.197 46.9295V46.7737C157.197 46.4622 157.457 45.9819 157.976 45.3329C158.495 44.7098 158.755 44.0738 158.755 43.4247V27.4585C158.755 26.8614 158.443 26.3032 157.82 25.784C157.197 25.2388 156.885 24.7974 156.885 24.4599V24.2652C156.885 23.8498 157.184 23.4734 157.781 23.1359L162.921 20.6047C163.493 20.371 163.908 20.3321 164.168 20.4878C164.427 20.6436 164.557 20.9422 164.557 21.3835V22.5128C165.57 21.085 167.231 20.371 169.542 20.371ZM168.919 37.9339C170.892 37.9339 171.878 36.2983 171.878 33.0272C171.878 31.4695 171.748 29.9118 171.489 28.3541C171.255 26.7965 170.814 25.3945 170.165 24.1484C169.542 22.9023 168.789 22.2792 167.906 22.2792C167.205 22.2792 166.634 22.5648 166.193 23.1359C165.777 23.7071 165.57 24.447 165.57 25.3556V32.4041C165.57 34.0137 165.907 35.3378 166.582 36.3762C167.257 37.4147 168.036 37.9339 168.919 37.9339ZM181.524 22.7465C181.082 23.0061 180.667 22.9412 180.277 22.5518C179.914 22.1623 179.914 21.7859 180.277 21.4225C181.108 20.5917 181.679 19.9686 181.991 19.5532C182.302 19.1119 182.484 18.6186 182.536 18.0734C182.588 17.5023 182.419 17.2167 182.03 17.2167C181.251 17.2167 180.589 16.8792 180.044 16.2042C179.499 15.5033 179.226 14.6335 179.226 13.5951C179.226 12.3489 179.576 11.3494 180.277 10.5965C181.004 9.81771 181.965 9.42829 183.159 9.42829C184.301 9.42829 185.275 9.85665 186.08 10.7134C186.911 11.5701 187.326 12.7254 187.326 14.1792C187.326 17.5542 185.392 20.41 181.524 22.7465ZM195.507 39.8031C193.015 39.8031 190.964 39.3877 189.354 38.557C187.744 37.7002 186.94 36.5969 186.94 35.2469C186.94 34.4161 187.186 33.7931 187.679 33.3777C188.199 32.9623 188.874 32.7546 189.704 32.7546C190.587 32.7546 191.288 33.0402 191.807 33.6113C192.327 34.1565 192.677 34.7666 192.859 35.4416C193.041 36.0906 193.352 36.7007 193.793 37.2719C194.235 37.8171 194.806 38.0897 195.507 38.0897C196.909 38.0897 197.61 37.3757 197.61 35.9478C197.61 35.0132 197.246 34.2733 196.519 33.7282C195.818 33.183 194.962 32.7676 193.949 32.482C192.937 32.1964 191.924 31.8719 190.912 31.5085C189.925 31.145 189.068 30.5349 188.341 29.6782C187.641 28.8214 187.29 27.6921 187.29 26.2902C187.29 24.5508 188.056 23.1359 189.588 22.0455C191.119 20.9292 193.092 20.371 195.507 20.371C197.921 20.371 199.881 20.8253 201.387 21.734C202.919 22.6426 203.685 23.746 203.685 25.0441C203.685 25.7191 203.425 26.2902 202.906 26.7575C202.413 27.1989 201.802 27.4195 201.076 27.4195C200.219 27.4195 199.544 27.1469 199.051 26.6017C198.557 26.0566 198.22 25.4594 198.038 24.8104C197.882 24.1354 197.623 23.5253 197.259 22.9801C196.922 22.4349 196.454 22.1623 195.857 22.1623C195.286 22.1623 194.832 22.383 194.494 22.8244C194.183 23.2657 194.027 23.7849 194.027 24.382C194.027 25.3426 194.365 26.1215 195.04 26.7186C195.74 27.3157 196.571 27.77 197.532 28.0815C198.518 28.3931 199.492 28.7306 200.452 29.094C201.439 29.4575 202.27 30.0546 202.945 30.8854C203.646 31.6902 203.996 32.7546 203.996 34.0786C203.996 35.7402 203.23 37.1161 201.699 38.2065C200.193 39.2709 198.129 39.8031 195.507 39.8031Z" fill="#19063D"/>
</svg>
