<svg width="241" height="62" viewBox="0 0 241 62" fill="none" xmlns="http://www.w3.org/2000/svg">
<path d="M12.974 11.258C11.2251 11.7663 9.91554 13.4635 9.39 15.8757C9.14878 17.013 9.18324 18.848 9.47616 19.9422C9.95861 21.7686 11.07 23.3107 12.3623 23.9483C12.9912 24.267 13.0515 24.2756 13.9303 24.2756C14.8176 24.2756 14.8607 24.267 15.5155 23.9396C17.5314 22.9489 18.7807 20.3126 18.6428 17.3403C18.505 14.5145 17.3764 12.3866 15.5241 11.5078C14.9641 11.2407 14.7659 11.1976 14.1198 11.1718C13.6632 11.1546 13.2152 11.189 12.974 11.258Z" fill="#FF8139"/>
<path d="M25.0442 11.258C24.4239 11.4216 23.8639 11.7404 23.3211 12.2315C21.3654 14.0062 20.6848 17.8142 21.7962 20.7864C22.3734 22.32 23.2436 23.371 24.4152 23.9483C25.0614 24.267 25.1131 24.2756 25.9918 24.2756C26.8706 24.2756 26.9309 24.267 27.5598 23.9483C28.878 23.3021 30.0238 21.6738 30.489 19.7957C30.7389 18.7791 30.7561 16.9613 30.5235 15.8757C29.9118 12.9724 28.1284 11.1201 25.9488 11.146C25.6645 11.146 25.2595 11.1976 25.0442 11.258Z" fill="#FF8139"/>
<path d="M2.42866 20.2446C1.30006 20.7184 0.559143 21.6402 0.197301 23.0617C-0.440229 25.5171 0.524681 29.0666 2.26497 30.7035C4.41017 32.7022 7.14121 31.8063 7.94243 28.8426C8.26981 27.6106 8.17504 25.6205 7.71843 24.2334C7.1326 22.4414 5.91784 20.9079 4.62555 20.3307C4.0914 20.0895 2.9025 20.0464 2.42866 20.2446Z" fill="#FF8139"/>
<path d="M35.4939 20.261C34.8736 20.4936 34.3739 20.8555 33.7191 21.5619C32.4096 22.9748 31.6859 25.1631 31.7893 27.4203C31.8668 29.0486 32.3148 30.16 33.2453 30.987C33.8483 31.5384 34.4686 31.7538 35.3474 31.7107C35.9419 31.6849 36.1314 31.6418 36.6914 31.3661C37.4323 30.9957 38.2335 30.2117 38.7332 29.3674C39.095 28.7643 39.5689 27.5151 39.7584 26.688C39.9566 25.8179 39.948 23.8536 39.7412 23.1213C39.388 21.8204 38.6384 20.7866 37.7511 20.3558C37.1652 20.0629 36.1314 20.0284 35.4939 20.261Z" fill="#FF8139"/>
<path d="M18.9441 27.334C17.6345 27.5149 16.3681 28.006 15.317 28.7383C14.7226 29.1518 7.53743 35.9148 7.0119 36.5524C6.53806 37.121 6.11591 38.0514 5.95222 38.8785C5.45253 41.3597 6.81375 44.1424 9.07095 45.2538C10.6562 46.0292 12.2931 45.9947 15.6099 45.0815C18.0308 44.4181 19.1853 44.2716 20.9945 44.4009C22.1403 44.4784 22.7262 44.5904 25.0437 45.1676C27.0683 45.6759 27.7144 45.7879 28.6018 45.7793C32.2547 45.7448 34.9771 41.7646 33.7796 38.2065C33.4866 37.3363 33.2109 36.8797 32.5131 36.1474C31.4017 34.9758 25.1384 29.1174 24.5957 28.7383C23.0277 27.6355 20.7705 27.0756 18.9441 27.334Z" fill="#FF8139"/>
<path d="M12.974 11.258C11.2251 11.7663 9.91554 13.4635 9.39 15.8757C9.14878 17.013 9.18324 18.848 9.47616 19.9422C9.95861 21.7686 11.07 23.3107 12.3623 23.9483C12.9912 24.267 13.0515 24.2756 13.9303 24.2756C14.8176 24.2756 14.8607 24.267 15.5155 23.9396C17.5314 22.9489 18.7807 20.3126 18.6428 17.3403C18.505 14.5145 17.3764 12.3866 15.5241 11.5078C14.9641 11.2407 14.7659 11.1976 14.1198 11.1718C13.6632 11.1546 13.2152 11.189 12.974 11.258Z" fill="#FF8139"/>
<path d="M25.0442 11.258C24.4239 11.4216 23.8639 11.7404 23.3211 12.2315C21.3654 14.0062 20.6848 17.8142 21.7962 20.7864C22.3734 22.32 23.2436 23.371 24.4152 23.9483C25.0614 24.267 25.1131 24.2756 25.9918 24.2756C26.8706 24.2756 26.9309 24.267 27.5598 23.9483C28.878 23.3021 30.0238 21.6738 30.489 19.7957C30.7389 18.7791 30.7561 16.9613 30.5235 15.8757C29.9118 12.9724 28.1284 11.1201 25.9488 11.146C25.6645 11.146 25.2595 11.1976 25.0442 11.258Z" fill="#FF8139"/>
<path d="M2.42866 20.2446C1.30006 20.7184 0.559143 21.6402 0.197301 23.0617C-0.440229 25.5171 0.524681 29.0666 2.26497 30.7035C4.41017 32.7022 7.14121 31.8063 7.94243 28.8426C8.26981 27.6106 8.17504 25.6205 7.71843 24.2334C7.1326 22.4414 5.91784 20.9079 4.62555 20.3307C4.0914 20.0895 2.9025 20.0464 2.42866 20.2446Z" fill="#FF8139"/>
<path d="M35.4939 20.261C34.8736 20.4936 34.3739 20.8555 33.7191 21.5619C32.4096 22.9748 31.6859 25.1631 31.7893 27.4203C31.8668 29.0486 32.3148 30.16 33.2453 30.987C33.8483 31.5384 34.4686 31.7538 35.3474 31.7107C35.9419 31.6849 36.1314 31.6418 36.6914 31.3661C37.4323 30.9957 38.2335 30.2117 38.7332 29.3674C39.095 28.7643 39.5689 27.5151 39.7584 26.688C39.9566 25.8179 39.948 23.8536 39.7412 23.1213C39.388 21.8204 38.6384 20.7866 37.7511 20.3558C37.1652 20.0629 36.1314 20.0284 35.4939 20.261Z" fill="#FF8139"/>
<path d="M18.9441 27.334C17.6345 27.5149 16.3681 28.006 15.317 28.7383C14.7226 29.1518 7.53743 35.9148 7.0119 36.5524C6.53806 37.121 6.11591 38.0514 5.95222 38.8785C5.45253 41.3597 6.81375 44.1424 9.07095 45.2538C10.6562 46.0292 12.2931 45.9947 15.6099 45.0815C18.0308 44.4181 19.1853 44.2716 20.9945 44.4009C22.1403 44.4784 22.7262 44.5904 25.0437 45.1676C27.0683 45.6759 27.7144 45.7879 28.6018 45.7793C32.2547 45.7448 34.9771 41.7646 33.7796 38.2065C33.4866 37.3363 33.2109 36.8797 32.5131 36.1474C31.4017 34.9758 25.1384 29.1174 24.5957 28.7383C23.0277 27.6355 20.7705 27.0756 18.9441 27.334Z" fill="#FF8139"/>
<path d="M60.2837 46C59.5541 46 59.1893 45.7112 59.1893 45.1336V44.9511C59.1893 44.5863 59.4933 44.0391 60.1013 43.3095C60.7094 42.5494 61.0134 41.7894 61.0134 41.0293V18.593C61.0134 17.833 60.7094 17.0881 60.1013 16.3585C59.4933 15.5985 59.1893 15.036 59.1893 14.6712V14.4888C59.1893 13.9112 59.5541 13.6224 60.2837 13.6224H71.6387C76.0469 13.6224 79.5735 14.504 82.2184 16.2673C84.8634 18.0306 86.1858 20.7515 86.1858 24.4301C86.1858 27.8655 85.0002 30.6168 82.6289 32.6841C80.2575 34.721 77.0958 35.7395 73.1436 35.7395H69.3586V41.0293C69.3586 41.7894 69.693 42.5494 70.3618 43.3095C71.0611 44.0391 71.4107 44.5863 71.4107 44.9511V45.1336C71.4107 45.7112 71.0459 46 70.3162 46H60.2837ZM71.4563 32.5473H73.1436C74.5725 32.5473 75.6669 31.9545 76.4269 30.7688C77.2174 29.5832 77.6126 28.1087 77.6126 26.3454C77.6126 23.5181 76.9894 21.2227 75.7429 19.4595C74.5269 17.6658 73.1588 16.7689 71.6387 16.7689H71.0003C69.9058 16.7689 69.3586 17.4986 69.3586 18.9578V30.3584C69.3586 31.8177 70.0578 32.5473 71.4563 32.5473ZM105.888 38.7948C106.223 38.4604 106.587 38.3692 106.983 38.5212C107.408 38.6428 107.606 38.9468 107.575 39.4333C107.545 40.1325 107.332 40.8621 106.937 41.6222C106.572 42.3822 106.04 43.1423 105.341 43.9023C104.642 44.6319 103.669 45.24 102.422 45.7264C101.206 46.2128 99.8231 46.456 98.2726 46.456C94.8676 46.456 92.0859 45.392 89.9274 43.2639C87.7993 41.1358 86.7352 38.354 86.7352 34.9186C86.7352 31.6049 87.8297 28.9143 90.0186 26.847C92.2075 24.7493 94.8828 23.6853 98.0446 23.6549C100.75 23.6245 102.939 24.2173 104.611 25.4334C106.283 26.6494 107.119 28.2607 107.119 30.2672C107.119 31.8481 106.435 33.2466 105.067 34.4626C103.73 35.6787 101.982 36.4539 99.8231 36.7883C98.303 37.0619 96.7829 37.1684 95.2628 37.1075C96.5397 39.5701 98.455 40.8013 101.009 40.8013C103.258 40.8013 104.885 40.1325 105.888 38.7948ZM97.0869 26.0718C96.1445 26.0718 95.3844 26.543 94.8068 27.4855C94.2596 28.4279 93.986 29.6592 93.986 31.1792C93.986 32.4257 94.1228 33.5962 94.3964 34.6906C95.2476 34.721 96.0077 34.6906 96.6765 34.5994C98.7438 34.2346 99.7775 32.5929 99.7775 29.6744C99.7471 28.6711 99.4735 27.8199 98.9566 27.1206C98.4702 26.4214 97.847 26.0718 97.0869 26.0718ZM119.069 46.456C116.759 46.456 114.935 45.7264 113.597 44.2671C112.29 42.8078 111.636 40.7253 111.636 38.0196V27.2118H109.903C109.599 27.2118 109.341 27.1206 109.128 26.9382C108.946 26.7254 108.854 26.467 108.854 26.163V25.1597C108.854 24.4605 109.204 24.1109 109.903 24.1109H110.77C112.168 24.1109 113.369 23.7005 114.372 22.8796C115.376 22.0284 116.029 20.9035 116.333 19.5051C116.485 18.7146 116.896 18.3194 117.565 18.3194H118.613C119.434 18.3194 119.845 18.7146 119.845 19.5051V24.1109H124.542C124.846 24.1109 125.089 24.2173 125.271 24.4301C125.484 24.6125 125.591 24.8557 125.591 25.1597V26.163C125.591 26.467 125.484 26.7254 125.271 26.9382C125.089 27.1206 124.846 27.2118 124.542 27.2118H119.845V38.1564C119.845 38.9164 120.042 39.5245 120.437 39.9805C120.833 40.4061 121.319 40.6189 121.897 40.6189C123.204 40.6189 124.207 40.0565 124.906 38.9316C125.119 38.658 125.363 38.506 125.636 38.4756C125.91 38.4148 126.138 38.4604 126.32 38.6124C126.533 38.7644 126.639 38.9772 126.639 39.2509C126.639 41.1662 125.955 42.8534 124.587 44.3127C123.25 45.7416 121.41 46.456 119.069 46.456ZM129.355 46C128.626 46 128.261 45.7112 128.261 45.1336V44.9511C128.261 44.5863 128.565 44.0391 129.173 43.3095C129.781 42.5494 130.085 41.7894 130.085 41.0293V18.593C130.085 17.833 129.781 17.0881 129.173 16.3585C128.565 15.5985 128.261 15.036 128.261 14.6712V14.4888C128.261 13.9112 128.626 13.6224 129.355 13.6224H140.71C145.118 13.6224 148.645 14.504 151.29 16.2673C153.935 18.0306 155.257 20.7515 155.257 24.4301C155.257 27.8655 154.072 30.6168 151.7 32.6841C149.329 34.721 146.167 35.7395 142.215 35.7395H138.43V41.0293C138.43 41.7894 138.764 42.5494 139.433 43.3095C140.133 44.0391 140.482 44.5863 140.482 44.9511V45.1336C140.482 45.7112 140.117 46 139.388 46H129.355ZM140.528 32.5473H142.215C143.644 32.5473 144.738 31.9545 145.498 30.7688C146.289 29.5832 146.684 28.1087 146.684 26.3454C146.684 23.5181 146.061 21.2227 144.814 19.4595C143.598 17.6658 142.23 16.7689 140.71 16.7689H140.072C138.977 16.7689 138.43 17.4986 138.43 18.9578V30.3584C138.43 31.8177 139.129 32.5473 140.528 32.5473ZM180.493 40.9837C180.493 41.8046 180.584 42.4278 180.767 42.8534C180.98 43.2791 181.208 43.5223 181.451 43.5831C181.724 43.6135 181.952 43.7199 182.135 43.9023C182.348 44.0847 182.454 44.3735 182.454 44.7687C182.454 45.3464 182.059 45.7416 181.268 45.9544C180.508 46.1672 179.338 46.2736 177.757 46.2736C176.328 46.2736 175.279 46.076 174.611 45.6808C173.972 45.2856 173.592 44.6015 173.47 43.6287C172.254 45.5136 170.111 46.456 167.041 46.456C164.608 46.456 162.571 45.6656 160.93 44.0847C159.319 42.4734 158.513 40.2693 158.513 37.4724V29.8568C158.513 29.0663 158.209 28.3063 157.601 27.5767C156.993 26.847 156.689 26.3302 156.689 26.0262V25.8438C156.689 25.2357 157.038 24.8861 157.738 24.7949L164.532 23.8829C165.961 23.7005 166.676 24.0045 166.676 24.7949L166.539 38.2932C166.508 40.1173 166.721 41.4398 167.177 42.2606C167.664 43.0511 168.424 43.4463 169.457 43.4463C170.309 43.4463 171.023 43.0358 171.601 42.215C172.178 41.3638 172.467 40.2541 172.467 38.886V29.8568C172.467 29.0663 172.163 28.3063 171.555 27.5767C170.947 26.847 170.643 26.3302 170.643 26.0262V25.8438C170.643 25.2357 170.993 24.8861 171.692 24.7949L178.487 23.8829C179.824 23.7005 180.493 24.0045 180.493 24.7949V40.9837ZM198.538 23.6549C201.366 23.6549 203.858 24.6277 206.017 26.5734C208.206 28.4887 209.3 31.1944 209.3 34.6906C209.3 38.1868 208.236 41.0293 206.108 43.2183C204.01 45.3768 201.487 46.456 198.538 46.456C196.684 46.456 195.133 46.0152 193.887 45.1336V50.6514C193.887 51.4115 194.221 52.1563 194.89 52.8859C195.589 53.646 195.939 54.2084 195.939 54.5732V54.7556C195.939 55.3333 195.574 55.6221 194.844 55.6221H185.177C184.447 55.6221 184.082 55.3333 184.082 54.7556V54.5732C184.082 54.2084 184.386 53.646 184.994 52.8859C185.602 52.1563 185.906 51.4115 185.906 50.6514V31.9545C185.906 31.2553 185.542 30.6016 184.812 29.9936C184.082 29.3552 183.717 28.8383 183.717 28.4431V28.2151C183.717 27.7287 184.067 27.2879 184.766 26.8926L190.786 23.9285C191.455 23.6549 191.941 23.6093 192.245 23.7917C192.549 23.9741 192.701 24.3237 192.701 24.8405V26.163C193.887 24.4909 195.832 23.6549 198.538 23.6549ZM197.809 44.2215C200.119 44.2215 201.274 42.3062 201.274 38.4756C201.274 36.6515 201.122 34.8274 200.818 33.0033C200.545 31.1792 200.028 29.5376 199.268 28.0783C198.538 26.619 197.657 25.8894 196.623 25.8894C195.802 25.8894 195.133 26.2238 194.616 26.8926C194.13 27.5615 193.887 28.4279 193.887 29.492V37.746C193.887 39.6309 194.282 41.1814 195.072 42.3974C195.863 43.6135 196.775 44.2215 197.809 44.2215ZM212.569 26.4366C212.053 26.7406 211.566 26.6646 211.11 26.2086C210.685 25.7526 210.685 25.3118 211.11 24.8861C212.083 23.9133 212.752 23.1836 213.117 22.6972C213.481 22.1804 213.694 21.6028 213.755 20.9643C213.816 20.2955 213.618 19.9611 213.162 19.9611C212.25 19.9611 211.475 19.5659 210.837 18.7754C210.198 17.9546 209.879 16.9361 209.879 15.7201C209.879 14.2608 210.289 13.0903 211.11 12.2087C211.961 11.2966 213.086 10.8406 214.485 10.8406C215.822 10.8406 216.962 11.3422 217.905 12.3455C218.878 13.3487 219.364 14.7016 219.364 16.4041C219.364 20.3563 217.099 23.7005 212.569 26.4366ZM228.944 46.4104C226.026 46.4104 223.624 45.924 221.739 44.9511C219.854 43.9479 218.912 42.6558 218.912 41.075C218.912 40.1021 219.201 39.3725 219.778 38.886C220.386 38.3996 221.177 38.1564 222.149 38.1564C223.183 38.1564 224.004 38.4908 224.612 39.1597C225.22 39.7981 225.63 40.5125 225.843 41.303C226.056 42.063 226.421 42.7774 226.938 43.4463C227.455 44.0847 228.123 44.4039 228.944 44.4039C230.586 44.4039 231.407 43.5679 231.407 41.8958C231.407 40.8013 230.981 39.9349 230.13 39.2965C229.309 38.658 228.306 38.1716 227.12 37.8372C225.934 37.5028 224.749 37.1227 223.563 36.6971C222.408 36.2715 221.405 35.5571 220.553 34.5538C219.733 33.5506 219.322 32.2281 219.322 30.5864C219.322 28.5495 220.219 26.8926 222.013 25.6158C223.806 24.3085 226.117 23.6549 228.944 23.6549C231.772 23.6549 234.067 24.1869 235.83 25.2509C237.624 26.315 238.521 27.6071 238.521 29.1271C238.521 29.9176 238.217 30.5864 237.609 31.1336C237.031 31.6505 236.317 31.9089 235.465 31.9089C234.462 31.9089 233.672 31.5897 233.094 30.9512C232.516 30.3128 232.121 29.6136 231.908 28.8535C231.726 28.0631 231.422 27.3487 230.996 26.7102C230.601 26.0718 230.054 25.7526 229.355 25.7526C228.686 25.7526 228.154 26.011 227.759 26.5278C227.394 27.0446 227.211 27.6527 227.211 28.3519C227.211 29.4768 227.607 30.3888 228.397 31.088C229.218 31.7873 230.191 32.3193 231.316 32.6841C232.471 33.0489 233.611 33.4442 234.736 33.8698C235.891 34.2954 236.864 34.9946 237.654 35.9675C238.475 36.9099 238.886 38.1564 238.886 39.7069C238.886 41.6526 237.989 43.2639 236.195 44.5407C234.432 45.7872 232.015 46.4104 228.944 46.4104Z" fill="white"/>
</svg>
